<?xml version="1.0" encoding="UTF-8"?>
<svg width="45px" height="70px" viewBox="0 0 45 70" version="1.1" xmlns="http://www.w3.org/2000/svg" xmlns:xlink="http://www.w3.org/1999/xlink">
    <title>persona/female/1</title>
    <g id="persona/female/1" stroke="none" stroke-width="1" fill="none" fill-rule="evenodd">
        <g id="Group-7" transform="translate(1.000000, 0.000000)">
            <path d="M39.916092,35.0836782 C39.7310345,37.034023 32.8493103,51.5722989 32.8493103,51.5722989 L16.4009195,51.2408046 C16.4009195,51.2408046 6.11655172,43.7202299 5.37390805,38.1483908 C4.63045977,32.5765517 5.05287356,27.37 5.05287356,27.37 L39.7012644,26.5227586 L39.916092,35.0836782" id="Fill-4" fill="#843A27"></path>
            <path d="M39.916092,35.0836782 C39.7310345,37.034023 32.8493103,51.5722989 32.8493103,51.5722989 L16.4009195,51.2408046 C16.4009195,51.2408046 6.11655172,43.7202299 5.37390805,38.1483908 C4.63045977,32.5765517 5.05287356,27.37 5.05287356,27.37 L39.7012644,26.5227586 L39.916092,35.0836782 Z" id="Stroke-5" stroke="#1A1613" stroke-width="0.567"></path>
            <path d="M32.9321839,62.8278161 C33.3031034,62.5494253 38.2529885,52.7936782 38.2529885,52.7936782 C41.9468966,54.0118391 43.0121839,64.4885057 43.3887356,69.374023 L34.5631034,69.374023 L32.9321839,62.8278161" id="Fill-6" fill="#C5A5BD"></path>
            <path d="M22.2575862,45.8837931 L18.3625287,45.8837931 L18.3625287,48.3426437 C18.3665517,51.2577011 10.6166667,51.524023 7.98804598,52.3632184 C8.69770115,58.4451724 14.3403448,62.9082759 22.6454023,68.5847126 L24.6544828,68.5847126 C28.0378161,63.5583908 36.5383908,60.488046 36.7371264,52.3632184 C34.0722989,51.511954 26.1478161,51.2914943 26.1518391,48.3426437 L26.1518391,45.8837931 L22.2575862,45.8837931" id="Fill-7" fill="#EFBC80"></path>
            <path d="M12.0721839,61.7142529 C11.7004598,61.4358621 6.47298851,52.7936782 6.47298851,52.7936782 C2.77908046,54.0118391 1.71298851,64.4885057 1.33724138,69.374023 L10.1628736,69.374023 L12.0721839,61.7142529" id="Fill-8" fill="#C5A5BD"></path>
            <path d="M7.98804598,52.3632184 C7.04344828,52.582069 6.34425287,52.7896552 6.11977011,52.9843678 C10.3366667,60.9893103 4.11068966,64.2012644 6.4054023,69.374023 L38.3197701,69.374023 C40.6144828,64.2012644 34.3893103,60.9893103 38.6054023,52.9843678 C38.3817241,52.7896552 37.6825287,52.582069 36.7371264,52.3632184 C35.7016092,57.6791954 29.6606897,61.7585057 22.3629885,61.7585057 C15.0644828,61.7585057 9.02356322,57.6791954 7.98804598,52.3632184" id="Fill-9" fill="#D0ACC4"></path>
            <path d="M22.6856322,3.07034483 L22.6357471,3.07195402 C21.4722989,3.02609195 20.3458621,2.98103448 20.3458621,2.98103448 L20.3506897,3.16287356 C20.2010345,3.16850575 20.1101149,3.17252874 20.1101149,3.17252874 C15.4611494,3.35758621 11.0833333,5.86149425 8.27609195,9.67609195 C5.46643678,13.493908 5.09310345,18.3013793 5.31436782,22.906092 C5.88402299,34.7368966 12.5114943,48.0208046 22.6856322,48.1189655 C32.8605747,48.0208046 39.488046,34.7368966 40.0577011,22.906092 C40.2781609,18.3013793 39.9056322,13.493908 37.0951724,9.67609195 C34.2887356,5.86149425 29.9109195,3.35758621 25.261954,3.17252874 C25.261954,3.17252874 25.1710345,3.16850575 25.0213793,3.16287356 L25.0262069,2.98103448 C25.0262069,2.98103448 23.8997701,3.02609195 22.7363218,3.07195402 L22.6856322,3.07034483" id="Fill-10" fill="#F3C692"></path>
            <path d="M34.8197701,24.7848276 C35.6171264,25.1155172 34.291954,22.9543678 30.3711494,22.8690805 C25.8010345,22.7693103 24.4106897,24.9674713 26.2113793,24.3358621 C30.095977,22.9736782 33.5549425,24.2602299 34.8197701,24.7848276" id="Fill-11" fill="#BD542D"></path>
            <path d="M15.1377011,29.041954 C15.8787356,29.041954 16.4837931,28.4368966 16.4837931,27.6958621 C16.4837931,26.954023 15.8787356,26.3489655 15.1377011,26.3489655 C14.3958621,26.3489655 13.7908046,26.954023 13.7908046,27.6958621 C13.7908046,28.4368966 14.3958621,29.041954 15.1377011,29.041954" id="Fill-12" fill="#373633"></path>
            <path d="M30.3204598,29.041954 C31.0614943,29.041954 31.6665517,28.4368966 31.6665517,27.6950575 C31.6665517,26.954023 31.0614943,26.3489655 30.3204598,26.3489655 C29.5786207,26.3489655 28.9735632,26.954023 28.9735632,27.6950575 C28.9735632,28.4368966 29.5786207,29.041954 30.3204598,29.041954" id="Fill-13" fill="#373633"></path>
            <path d="M17.3817241,38.6086207 C20.6668966,40.3787356 24.4525287,40.3787356 27.7377011,38.6086207 C26.9226437,43.8425287 18.265977,43.6808046 17.3817241,38.6086207" id="Fill-14" fill="#C87A57"></path>
            <path d="M19.6466667,35.7482759 C19.6313793,35.7434483 19.6281609,35.7297701 19.6426437,35.7072414 C19.6426437,35.6396552 19.6804598,35.5736782 19.752069,35.5109195 C20.3048276,34.4464368 21.3926437,31.3406897 21.8914943,27.9251724 C22.4378161,27.9589655 21.35,33.7391954 20.8817241,35.1182759 C21.3548276,35.0362069 21.9325287,34.987931 22.5552874,34.987931 C24.1644828,34.987931 25.4687356,35.3097701 25.4687356,35.7072414 C25.4687356,36.1047126 24.1644828,36.4265517 22.5552874,36.4265517 C21.0016092,36.4265517 19.7327586,36.1264368 19.6466667,35.7482759" id="Fill-15" fill="#DBAB78"></path>
            <path d="M10.3181609,24.8194253 C9.5208046,25.1501149 10.845977,22.9889655 14.7667816,22.9036782 C19.3377011,22.803908 20.728046,25.002069 18.9273563,24.3704598 C15.041954,23.0090805 11.5829885,24.2948276 10.3181609,24.8194253" id="Fill-16" fill="#BD542D"></path>
            <path d="M10.3318391,7.37011494 C16.6777011,11.117931 35.8898851,17.3929885 35.3282759,36.0717241 C35.3282759,36.0717241 36.6751724,28.5905747 36.7210345,28.9413793 C36.7677011,29.2921839 37.6962069,33.9089655 36.3034483,40.7472414 C34.9106897,47.5855172 29.2463218,55.5767816 29.478046,55.225977 C29.7105747,54.8751724 35.6541379,51.9955172 39.1356322,44.021954 C49.2486207,20.864023 41.1978161,-4.12597701 17.1644828,0.897931034 C12.0054023,1.97689655 8.04517241,6.02 10.3318391,7.37011494" id="Fill-17" fill="#BD542D"></path>
            <path d="M17.3817241,9.63827586 C4.05758621,16.6728736 9.39770115,40.9862069 14.7048276,49.1512644 C17.2425287,53.0551724 19.8454023,55.5928736 18.9337931,54.8124138 C18.0229885,54.031954 11.4510345,54.5517241 4.42287356,41.2766667 C-1.22942529,30.6004598 -3.09850575,3.79367816 14.4441379,3.79367816 L17.3817241,9.63827586" id="Fill-18" fill="#BD542D"></path>
            <path d="M4.84367816,17.2626437 C5.58632184,16.6125287 9.21425287,12.2966667 9.21425287,12.2966667 C5.73034483,26.9162069 12.1598851,39.1766667 12.1325287,39.1309328 C6.7537931,29.9085057 5.9854023,27.7827586 4.84367816,17.2626437" id="Fill-19" fill="#BD542D"></path>
        </g>
    </g>
</svg>