<?xml version="1.0" encoding="UTF-8"?>
<svg width="45px" height="70px" viewBox="0 0 45 70" version="1.1" xmlns="http://www.w3.org/2000/svg" xmlns:xlink="http://www.w3.org/1999/xlink">
    <title>persona/male/2</title>
    <g id="persona/male/2" stroke="none" stroke-width="1" fill="none" fill-rule="evenodd">
        <g id="Group-8" transform="translate(1.000000, 0.000000)">
            <polyline id="Fill-35" fill="#2884AE" points="16.3412941 51.1337647 16.2243529 47.3587059 28.1441176 47.3570588 28.0312941 51.0151765 16.3412941 51.1337647"></polyline>
            <path d="M14.2231765,58.9054118 C13.8435294,58.6204706 5.35047059,54.6214118 5.35047059,54.6214118 C1.56964706,55.8690588 0.721411765,64.3588235 0.336823529,69.3592941 L9.37011765,69.3592941 L14.2231765,58.9054118" id="Fill-36" fill="#1F89BE"></path>
            <path d="M29.2748235,58.9054118 C29.6544706,58.6204706 38.1475294,54.6214118 38.1475294,54.6214118 C41.9283529,55.8690588 42.7765882,64.3588235 43.1611765,69.3592941 L34.1278824,69.3592941 L29.2748235,58.9054118" id="Fill-37" fill="#1F89BE"></path>
            <path d="M21.7494118,45.3163529 L17.7627059,45.3163529 L17.7627059,47.8330588 C17.7651765,49.3969412 17.5041176,49.0716471 16.044,49.8844706 C16.044,49.8844706 14.6341176,51.0407059 14.2050588,51.1774118 C15.9772941,56.8803529 17.4003529,62.8361176 20.8632941,67.9807059 L22.9204706,67.9807059 C26.3825882,62.8361176 27.5215294,56.8803529 29.2929412,51.1774118 C28.8638824,51.0407059 27.4548235,49.8844706 27.4548235,49.8844706 C25.9938824,49.0716471 25.7328235,49.3969412 25.7352941,47.8330588 L25.7352941,45.3163529 L21.7494118,45.3163529" id="Fill-38" fill="#EDB179"></path>
            <path d="M22.1051765,59.1656471 C22.1051765,59.1656471 20.8616471,57.5251765 20.2892941,56.5945882 C18.5574118,53.7830588 16.0983529,49.9371765 16.0415294,49.9058824 C13.9168235,50.8743529 6.16905882,53.9098824 5.30105882,54.6617647 C6.00517647,56.2025882 7.07247059,62.5437647 7.99564706,69.3592941 L35.5023529,69.3592941 C36.4255294,62.5437647 37.4928235,56.2025882 38.1969412,54.6617647 C37.3297647,53.9098824 29.5811765,50.8743529 27.4564706,49.9058824 C27.4029412,49.9355294 25.8662353,53.8975294 24.0791765,56.5929412 C23.338,57.7112941 22.1051765,59.1656471 22.1051765,59.1656471" id="Fill-39" fill="#2480B7"></path>
            <path d="M18.0295294,53.3465882 C18.2436471,53.3465882 19.4451765,53.5368235 19.4451765,53.5368235 L20.2892941,56.5945882 L17.2694118,55.1995294 L18.0295294,53.3465882" id="Fill-40" fill="#1A70A1"></path>
            <path d="M16.2243529,47.3587059 L19.4451765,53.5368235 C19.4451765,53.5368235 16.1288235,56.7914118 16.1765882,56.6489412 C16.2243529,56.5064706 14.6892941,50.7483529 14.8029412,50.4428235 C14.9174118,50.1389412 16.2243529,47.3587059 16.2243529,47.3587059" id="Fill-41" fill="#369AC9"></path>
            <path d="M26.3381176,53.3449412 C26.1248235,53.3449412 24.9232941,53.5351765 24.9232941,53.5351765 L24.0791765,56.5929412 L27.0990588,55.1978824 L26.3381176,53.3449412" id="Fill-42" fill="#1A70A1"></path>
            <path d="M28.1441176,47.3570588 L24.9232941,53.5351765 C24.9232941,53.5351765 28.2388235,56.7897647 28.1910588,56.6472941 C28.1441176,56.5048235 29.6791765,50.7467059 29.5655294,50.442 C29.4510588,50.1372941 28.1441176,47.3570588 28.1441176,47.3570588" id="Fill-43" fill="#369AC9"></path>
            <path d="M32.0278824,26.9755294 C31.4571765,29.9451765 33.3792941,32.4190588 36.3242353,32.9518824 C39.2667059,33.4847059 42.1136471,31.8747059 42.6827059,28.9042353 C43.2525882,25.9337647 41.3312941,23.0942353 38.388,22.5614118 C35.4455294,22.0285882 32.5977647,24.0034118 32.0278824,26.9755294" id="Fill-44" fill="#EFBC80"></path>
            <path d="M11.4931765,26.9755294 C12.0630588,29.9451765 10.1409412,32.4190588 7.19764706,32.9518824 C4.25435294,33.4847059 1.40741176,31.8747059 0.838352941,28.9042353 C0.267647059,25.9337647 2.18976471,23.0942353 5.13305882,22.5614118 C8.07552941,22.0285882 10.9232941,24.0034118 11.4931765,26.9755294" id="Fill-45" fill="#EFBC80"></path>
            <path d="M36.4469412,8.12329412 C33.5736471,4.21976471 29.0928235,1.65611765 24.3344706,1.46752941 C24.3336471,1.46752941 24.2414118,1.46341176 24.0874118,1.45764706 L24.0931765,1.27152941 C24.0931765,1.27152941 22.9402353,1.31682353 21.7494118,1.36458824 C20.5577647,1.31682353 19.4048235,1.27152941 19.4048235,1.27152941 L19.4097647,1.45764706 C19.2565882,1.46341176 19.1643529,1.46752941 19.1643529,1.46752941 C14.4051765,1.65611765 9.92517647,4.21976471 7.05188235,8.12329412 C4.17611765,12.0309412 3.794,16.9523529 4.02047059,21.6645882 C4.60352941,33.7745882 5.68564706,47.3364706 21.8004706,47.4715294 C37.9638824,47.6065882 38.8961176,33.6881176 39.4783529,21.6645882 C39.704,16.9523529 39.3227059,12.0309412 36.4469412,8.12329412" id="Fill-46" fill="#F3C692"></path>
            <path d="M5.77705882,25.5631765 C5.99035294,21.1004706 6.04717647,13.0274118 9.95564706,13.0274118 C10.0552941,13.0274118 21.8268235,8.14964706 35.3812941,8.14964706 C38.5016471,8.14964706 39.2757647,17.0116471 39.3358824,22.8430588 C39.3836471,27.8649412 38.4407059,30.1831765 38.8047059,30.3388235 C39.2304706,30.5208235 40.9681176,27.6063529 40.963187,20.5248235 C40.9598824,17.3270588 40.8808235,12.3669412 38.0956471,7.68023529 C37.1156471,6.03152941 36.4667059,4.04105882 34.4474118,2.69047059 C29.6775294,-0.499882353 19.4814118,0.228941176 13.9925882,2.03411765 C-1.19164706,7.03211765 4.20905882,30.2762353 4.69988235,30.2292941 C5.29611765,30.1716471 5.74741176,26.18 5.77705882,25.5631765" id="Fill-47" fill="#B48A43"></path>
            <path d="M23.6402353,5.55058824 C25.5409412,5.45505882 34.846,7.95117647 34.846,7.95117647 C27.8995294,14.8581176 16.6188235,19.4888235 6.818,17.668 C6.818,17.668 11.2848235,14.8169412 10.9521176,15.1018824 C10.6194118,15.3868235 6.80152941,16.2161176 5.48717647,16.0522353 C4.17364706,15.8891765 4.23788235,15.4115294 4.23788235,15.4115294 C11.8497647,8.39341176 11.6521176,8.46094118 23.6402353,5.55058824" id="Fill-48" fill="#B48A43"></path>
            <path d="M7.08317647,23.3725882 L7.08317647,23.3725882 C9.31576471,22.6281176 15.6058824,22.8644706 17.7956471,24.0165882 C20.3510588,25.3622353 18.2617647,30.0851765 17.0388235,31.6762353 C15.4502353,33.7416471 9.07447059,34.0265882 7.14905882,31.6284706 C6.52647059,30.8527059 6.08917647,29.2805882 5.90388235,28.2758824 C5.71858824,27.2711765 5.56541176,25.2288235 5.91458824,24.3336471 C6.26458824,23.4384706 7.08317647,23.3725882 7.08317647,23.3725882 Z M36.4148235,23.3725882 L36.4148235,23.3725882 C36.4148235,23.3725882 37.2334118,23.4384706 37.5834118,24.3336471 C37.9325882,25.2288235 37.7794118,27.2711765 37.5941176,28.2758824 C37.4088235,29.2805882 36.9715294,30.8527059 36.3489412,31.6284706 C34.4235294,34.0265882 28.0477647,33.7416471 26.4591765,31.6762353 C25.2370588,30.0851765 23.1469412,25.3622353 25.7023529,24.0165882 C27.8921176,22.8644706 34.1822353,22.6281176 36.4148235,23.3725882 Z M19.6527059,23.7983529 C19.4995294,23.6237647 19.0507059,23.0736471 18.3638824,22.8265882 C15.1372941,21.6637647 6.21352941,22.1455294 3.84011765,22.7392941 C3.53458824,22.8158824 3.50164706,22.8043529 3.46870588,23.0118824 C3.43658824,23.2194118 3.42505882,24.4423529 3.52388235,24.6284706 C3.62188235,24.8137647 4.09129412,24.8903529 4.50635294,25.5014118 C5.25082353,26.5975294 5.19811765,30.5776471 6.97529412,32.4627059 C8.81505882,34.4152941 15.7895294,34.4869412 17.6770588,31.8862353 C18.9230588,30.1683529 19.5407059,28.2577647 20.2094118,26.4196471 C20.6137647,26.0045882 20.9629412,25.9716471 21.2791765,25.928 C21.476,25.9008235 21.6472941,25.8950588 21.7494118,25.8942353 C21.8507059,25.8950588 22.022,25.9008235 22.2188235,25.928 C22.5350588,25.9716471 22.8842353,26.0045882 23.2885882,26.4196471 C23.9572941,28.2577647 24.5749412,30.1683529 25.8209412,31.8862353 C27.7084706,34.4869412 34.6829412,34.4152941 36.5227059,32.4627059 C38.2998824,30.5776471 38.248,26.5975294 38.9916471,25.5014118 C39.4067059,24.8903529 39.8761176,24.8137647 39.9741176,24.6284706 C40.0729412,24.4423529 40.0614118,23.2194118 40.0284706,23.0118824 C39.9963529,22.8043529 39.9634118,22.8158824 39.6570588,22.7392941 C37.2844706,22.1455294 28.3607059,21.6637647 25.1341176,22.8265882 C24.4472941,23.0736471 23.9984706,23.6237647 23.8452941,23.7983529 C23.576,23.9021176 23.1387059,23.9515294 21.7494118,23.9210588 C20.3592941,23.9515294 19.922,23.9021176 19.6527059,23.7983529 L19.6527059,23.7983529 Z" id="Fill-49" fill="#373633"></path>
            <path d="M12.7432941,29.4016471 C13.5025882,29.4016471 14.1218824,28.7823529 14.1218824,28.0238824 C14.1218824,27.2645882 13.5025882,26.6452941 12.7432941,26.6452941 C11.9848235,26.6452941 11.3655294,27.2645882 11.3655294,28.0238824 C11.3655294,28.7823529 11.9848235,29.4016471 12.7432941,29.4016471" id="Fill-50" fill="#373633"></path>
            <path d="M30.7538824,29.4016471 C31.5131765,29.4016471 32.1324706,28.7823529 32.1324706,28.0238824 C32.1324706,27.2645882 31.5131765,26.6452941 30.7538824,26.6452941 C29.9945882,26.6452941 29.3761176,27.2645882 29.3761176,28.0238824 C29.3761176,28.7823529 29.9945882,29.4016471 30.7538824,29.4016471" id="Fill-51" fill="#373633"></path>
            <path d="M28.3788235,38.0989412 C27.1130588,39.718 24.7882353,40.8042353 22.1290588,40.8042353 C19.4698824,40.8042353 17.1450588,39.718 15.8792941,38.0989412 C17.4217647,39.214 19.5794118,40.3414118 22.0582353,40.3414118 C24.5362353,40.3414118 26.8363529,39.214 28.3788235,38.0989412" id="Fill-52" fill="#C87A57"></path>
            <path d="M18.9724706,36.218 C18.956,36.2130588 18.9535294,36.1998824 18.9675294,36.1768235 C18.9675294,36.1068235 19.0070588,36.0392941 19.0803529,35.9758824 C19.6461176,34.8863529 20.7595294,31.7075294 21.2701176,28.2116471 C21.8292941,28.2462353 20.7158824,34.1616471 20.2357647,35.574 C20.7208235,35.4891765 21.3112941,35.4397647 21.9495294,35.4397647 C23.5965882,35.4397647 24.9315294,35.77 24.9315294,36.1768235 C24.9315294,36.5836471 23.5965882,36.9130588 21.9495294,36.9130588 C20.3592941,36.9130588 19.0597647,36.6058824 18.9724706,36.218" id="Fill-53" fill="#DBAB78"></path>
            <path d="M7.87458824,20.9802353 C7.42905882,20.2168235 9.81647059,19.8569412 12.2376471,19.8742353 C16.2992941,19.9038824 18.4709412,21.8885882 16.52,21.8037647 C15.0615294,21.7403529 8.00470588,21.2042353 7.87458824,20.9802353" id="Fill-54" fill="#B48A43"></path>
            <path d="M35.4867059,20.8855294 C35.9322353,20.1212941 33.5448235,19.7614118 31.1228235,19.7795294 C27.062,19.8091765 24.8903529,21.7938824 26.8412941,21.7090588 C28.2997647,21.6456471 35.3557647,21.1087059 35.4867059,20.8855294" id="Fill-55" fill="#B48A43"></path>
        </g>
    </g>
</svg>