<?xml version="1.0" encoding="UTF-8"?>
<svg width="45px" height="70px" viewBox="0 0 45 70" version="1.1" xmlns="http://www.w3.org/2000/svg" xmlns:xlink="http://www.w3.org/1999/xlink">
    <title>persona/none</title>
    <defs>
        <rect id="path-1" x="0" y="0" width="45" height="70"></rect>
    </defs>
    <g id="persona/none" stroke="none" stroke-width="1" fill="none" fill-rule="evenodd">
        <mask id="mask-2" fill="white">
            <use xlink:href="#path-1"></use>
        </mask>
        <use id="Rectangle" fill-opacity="0" fill="#FFFFFF" fill-rule="nonzero" xlink:href="#path-1"></use>
        <path d="M10.4834102,56.3005554 L-1.13530432,62.6381697 C-1.81711582,63.0099333 -2.42986452,63.4669233 -3,63.9650572 C3.77403239,69.6766979 12.5185588,73.122491 22.0727364,73.122491 C31.5563817,73.122491 40.2450701,69.7281277 47,64.0943662 C46.3769654,63.5683134 45.7010315,63.0951597 44.9516266,62.7219267 L32.5100361,56.5018662 C30.9024892,55.6980927 29.8871191,54.0552796 29.8871191,52.2581773 L29.8871191,47.3767596 C30.2368413,46.9785464 30.6365239,46.4671878 31.0641255,45.8632556 C32.7598378,43.4680989 34.0426426,40.8334264 34.9316425,38.0694449 C36.5274341,37.5771887 37.7029712,36.1033591 37.7029712,34.3518089 L37.7029712,29.1412408 C37.7029712,27.9950921 37.193082,26.9709055 36.4010639,26.2538278 L36.4010639,18.721574 C36.4010639,18.721574 37.9483645,7 22.0742058,7 C6.20004702,7 7.74734769,18.721574 7.74734769,18.721574 L7.74734769,26.2538278 C6.95386017,26.9709055 6.44544039,27.9950921 6.44544039,29.1412408 L6.44544039,34.3518089 C6.44544039,35.7242484 7.16692626,36.9321127 8.24695095,37.6300879 C9.54885826,43.297646 12.9579158,47.3767596 12.9579158,47.3767596 L12.9579158,52.1376848 C12.9564464,53.871602 12.0072002,55.468863 10.4834102,56.3005554 Z" id="Shape" fill="#E7ECED" fill-rule="nonzero" mask="url(#mask-2)"></path>
    </g>
</svg>